<?xml version="1.0" encoding="UTF-8"?>
<svg width="16px" height="16px" viewBox="0 0 16 16" version="1.1" xmlns="http://www.w3.org/2000/svg" xmlns:xlink="http://www.w3.org/1999/xlink">
    <!-- Generator: Sketch 57.1 (83088) - https://sketch.com -->
    <title>形状</title>
    <desc>Created with Sketch.</desc>
    <g id="页面-1" stroke="none" stroke-width="1" fill="none" fill-rule="evenodd">
        <g id="B-02-社区搜索筛选后" transform="translate(-1517.000000, -913.000000)" fill-rule="nonzero">
            <g id="论坛/list" transform="translate(340.000000, 877.000000)">
                <g id="编组-6">
                    <g id="编组-5" transform="translate(1079.000000, 35.000000)">
                        <g id="留言" transform="translate(106.000000, 9.000000) scale(-1, 1) translate(-106.000000, -9.000000) translate(98.000000, 1.000000)">
                            <rect id="矩形" fill="#000000" opacity="0" x="0" y="0" width="16" height="16"></rect>
                            <path d="M8.0125,0.2125 C3.65,0.2125 0.125,3.2625 0.125,7.0125 C0.125,8.9625 1.075,10.725 2.6125,11.9625 L8,15.975 L8,13.8125 C12.35,13.8125 15.8875,10.7625 15.8875,7.0125 C15.8875,3.2625 12.3625,0.2125 8.0125,0.2125 Z M11.9375,8.225 C11.3625,8.225 10.9,7.7625 10.9,7.1875 C10.9,6.6125 11.3625,6.15 11.9375,6.15 C12.5125,6.15 12.975,6.6125 12.975,7.1875 C12.9625,7.7625 12.5,8.225 11.9375,8.225 Z M8.0125,8.225 C7.4375,8.225 6.975,7.7625 6.975,7.1875 C6.975,6.6125 7.4375,6.15 8.0125,6.15 C8.5875,6.15 9.05,6.6125 9.05,7.1875 C9.0375,7.7625 8.575,8.225 8.0125,8.225 Z M4.1,8.225 C3.525,8.225 3.0625,7.7625 3.0625,7.1875 C3.0625,6.6125 3.525,6.15 4.1,6.15 C4.675,6.15 5.1375,6.6125 5.1375,7.1875 C5.1375,7.7625 4.675,8.225 4.1,8.225 Z" id="形状" fill="#C3C9D4"></path>
                        </g>
                    </g>
                </g>
            </g>
        </g>
    </g>
</svg>