<?xml version="1.0" encoding="UTF-8"?>
<svg width="40px" height="40px" viewBox="0 0 40 40" version="1.1" xmlns="http://www.w3.org/2000/svg" xmlns:xlink="http://www.w3.org/1999/xlink">
    <!-- Generator: Sketch 57.1 (83088) - https://sketch.com -->
    <title>编组 5</title>
    <desc>Created with Sketch.</desc>
    <g id="页面-1" stroke="none" stroke-width="1" fill="none" fill-rule="evenodd">
        <g id="A-01-首页" transform="translate(-1452.000000, -1708.000000)">
            <g id="底部" transform="translate(0.000000, 1678.000000)">
                <g id="编组-2">
                    <g id="编组-5" transform="translate(1452.000000, 30.000000)">
                        <circle id="椭圆形备份-3" fill="#414856" cx="20" cy="20" r="20"></circle>
                        <g id="bilibili" transform="translate(12.000000, 13.000000)" fill="#C3C9D4" fill-rule="nonzero">
                            <path d="M3.21164648,0.104674473 C3.50784478,-0.0343943283 3.85057709,-0.0343943283 4.14677539,0.104674473 C4.35801717,0.213479609 4.55102338,0.354522414 4.71885449,0.522731699 L6.91916504,2.44800514 L8.49236719,2.44800514 L10.6926777,0.522731836 C10.8607402,0.354792555 11.053702,0.213782171 11.2647568,0.104674609 C11.581254,-0.00833396379 11.9320454,0.0295170557 12.2171506,0.207439572 C12.5022557,0.385362088 12.6904009,0.6838395 12.7279619,1.01780137 C12.7394688,1.28474102 12.6534376,1.54674562 12.4859287,1.7549041 C12.332495,1.91007538 12.170911,2.05697007 12.0018623,2.19496484 C11.9045755,2.28567029 11.8016925,2.37018135 11.6938199,2.4479998 L13.0690055,2.4479998 C13.6826342,2.46774673 14.2637296,2.72864773 14.6862242,3.17410078 C15.1347723,3.59546161 15.399557,4.17636466 15.4233789,4.79132227 L15.4233789,11.1172031 C15.4395205,11.4372971 15.4210778,11.7581984 15.3683712,12.0743355 C15.2235895,12.7147478 14.8270567,13.2698955 14.2682187,13.6145543 C13.8881772,13.8489704 13.4495446,13.971025 13.0030439,13.9666037 L2.9035918,13.9666037 C2.57252892,13.983502 2.24060785,13.9650619 1.9134541,13.911596 C1.28065483,13.7625994 0.733881833,13.3663862 0.39524707,12.8114435 C0.152532051,12.4339818 0.0227526967,11.9950139 0.0211981055,11.5462539 L0.0211981055,5.28639453 C-0.00705840627,4.98267337 -0.00705840627,4.67698483 0.0211981055,4.37326367 C0.22728978,3.29797337 1.12957007,2.49494352 2.22150865,2.41498633 L3.66270201,2.41498633 C3.43167057,2.24996406 3.23364303,2.05193652 3.02461373,1.87591113 C2.77411169,1.64579725 2.6441414,1.31274897 2.67256432,0.973786133 C2.69849572,0.613089647 2.90003232,0.288171081 3.21164648,0.104674473 L3.21164648,0.104674473 Z M2.95860742,4.37326367 C2.54025489,4.44733156 2.20194185,4.7556679 2.0894877,5.16537383 C2.06977704,5.30402924 2.06977704,5.44477564 2.0894877,5.58343105 L2.0894877,10.7871518 C2.06521606,11.2831676 2.37625489,11.7339487 2.84859258,11.8873043 C3.00092738,11.9389992 3.16079294,11.9650975 3.32165859,11.964315 L12.2658949,11.964315 C12.7140047,11.9811745 13.1275021,11.724371 13.31104,11.3152249 C13.4057212,11.0856023 13.4434658,10.8364877 13.4210553,10.5891239 L13.4210553,5.74845988 C13.4463312,5.57334277 13.4463312,5.39550356 13.4210553,5.22038645 C13.3221803,4.86747248 13.054053,4.58697025 12.7059561,4.47228332 C12.4872684,4.39493329 12.2555168,4.36129189 12.0238621,4.37326955 L3.47567773,4.37326955 C3.30353435,4.36112757 3.13074944,4.36112757 2.95860605,4.37326955 L2.95860742,4.37326367 Z" id="形状"></path>
                            <path d="M4.76285742,6.08950781 C5.03868314,6.0755819 5.30965727,6.16590662 5.5219623,6.34254277 C5.7605934,6.54654296 5.90070298,6.84277449 5.90701562,7.15665508 L5.90701562,8.25680762 C5.91688786,8.50983484 5.83917293,8.75852193 5.68698457,8.96090508 C5.46038171,9.241937 5.11032078,9.39391182 4.75027391,9.36756694 C4.39022704,9.34122206 4.06601633,9.13991032 3.88273457,8.82888686 C3.76831674,8.59703087 3.71889059,8.33849482 3.73971445,8.08078373 L3.73971445,6.98063119 C3.815248,6.49271487 4.20658137,6.11487549 4.69684687,6.05650268 L4.76285742,6.08950781 Z M10.4506445,6.08950781 C10.7443836,6.06840698 11.0343197,6.16595492 11.2555658,6.36032061 C11.4768119,6.5546863 11.6108952,6.82964128 11.627808,7.12365117 L11.627808,8.22380371 C11.6455376,8.47680962 11.5881275,8.72941486 11.4627857,8.94990469 C11.2576793,9.24932821 10.9180946,9.42832806 10.5551578,9.42832806 C10.192221,9.42832806 9.85263633,9.24932821 9.64752988,8.94990469 C9.50872012,8.71430772 9.4471657,8.44115935 9.47150586,8.16879629 L9.47150586,7.06864375 C9.52859793,6.56357644 9.92425643,6.16337005 10.4286383,6.10050957 L10.4506445,6.08950781 Z" id="形状"></path>
                        </g>
                    </g>
                </g>
            </g>
        </g>
    </g>
</svg>